<svg width="25" height="25" viewBox="0 0 25 25" fill="none" xmlns="http://www.w3.org/2000/svg">
<path d="M12.7988 17.7574C11.6888 17.7574 10.7988 16.8574 10.7988 15.7574C10.7988 14.6474 11.6888 13.7574 12.7988 13.7574C13.3293 13.7574 13.838 13.9681 14.213 14.3432C14.5881 14.7183 14.7988 15.227 14.7988 15.7574C14.7988 16.2878 14.5881 16.7966 14.213 17.1716C13.838 17.5467 13.3293 17.7574 12.7988 17.7574ZM18.7988 20.7574V10.7574H6.79883V20.7574H18.7988ZM18.7988 8.75742C19.3293 8.75742 19.838 8.96813 20.213 9.3432C20.5881 9.71828 20.7988 10.227 20.7988 10.7574V20.7574C20.7988 21.2878 20.5881 21.7966 20.213 22.1716C19.838 22.5467 19.3293 22.7574 18.7988 22.7574H6.79883C5.68883 22.7574 4.79883 21.8574 4.79883 20.7574V10.7574C4.79883 9.64742 5.68883 8.75742 6.79883 8.75742H7.79883V6.75742C7.79883 5.43133 8.32561 4.15956 9.26329 3.22188C10.201 2.2842 11.4727 1.75742 12.7988 1.75742C13.4554 1.75742 14.1056 1.88674 14.7122 2.13802C15.3189 2.38929 15.8701 2.75759 16.3344 3.22188C16.7987 3.68617 17.167 4.23737 17.4182 4.844C17.6695 5.45063 17.7988 6.10081 17.7988 6.75742V8.75742H18.7988ZM12.7988 3.75742C12.0032 3.75742 11.2401 4.07349 10.6775 4.6361C10.1149 5.1987 9.79883 5.96177 9.79883 6.75742V8.75742H15.7988V6.75742C15.7988 5.96177 15.4828 5.1987 14.9201 4.6361C14.3575 4.07349 13.5945 3.75742 12.7988 3.75742Z" fill="currentColor"/>
</svg>
