<svg width="36" height="36" viewBox="0 0 36 36" fill="none" xmlns="http://www.w3.org/2000/svg">
<path d="M19.737 5.87999L22.8045 12.639L29.8455 13.5525C30.1887 13.62 30.5071 13.7793 30.7669 14.0134C31.0267 14.2475 31.2181 14.5477 31.3208 14.8821C31.4235 15.2164 31.4335 15.5723 31.3499 15.9119C31.2663 16.2515 31.0922 16.562 30.846 16.8105L25.812 21.93L26.9865 29.1705C27.0585 29.5087 27.0333 29.8603 26.9139 30.1848C26.7944 30.5092 26.5855 30.7932 26.3114 31.004C26.0373 31.2147 25.7091 31.3435 25.3649 31.3756C25.0206 31.4076 24.6743 31.3415 24.366 31.185L18.1155 27.498L11.865 31.185C11.5567 31.3415 11.2104 31.4076 10.8662 31.3756C10.5219 31.3435 10.1937 31.2147 9.91962 31.004C9.6455 30.7932 9.43663 30.5092 9.31716 30.1848C9.1977 29.8603 9.17251 29.5087 9.24452 29.1705L10.419 21.93L5.38652 16.8165C5.14037 16.568 4.96621 16.2575 4.8826 15.9179C4.79899 15.5783 4.80906 15.2224 4.91173 14.8881C5.0144 14.5537 5.20583 14.2535 5.46562 14.0194C5.72542 13.7853 6.04386 13.626 6.38702 13.5585L13.428 12.645L16.4955 5.87999C16.6347 5.56626 16.8619 5.29966 17.1496 5.11254C17.4373 4.92541 17.7731 4.82581 18.1163 4.82581C18.4595 4.82581 18.7953 4.92541 19.083 5.11254C19.3707 5.29966 19.5979 5.56626 19.737 5.87999Z" fill="currentColor"/>
</svg>
