<svg width="25" height="25" viewBox="0 0 25 25" fill="none" xmlns="http://www.w3.org/2000/svg">
<path d="M12.7988 4.75742C13.8597 4.75742 14.8771 5.17884 15.6273 5.92899C16.3774 6.67913 16.7988 7.69655 16.7988 8.75742C16.7988 9.81828 16.3774 10.8357 15.6273 11.5858C14.8771 12.336 13.8597 12.7574 12.7988 12.7574C11.738 12.7574 10.7205 12.336 9.9704 11.5858C9.22026 10.8357 8.79883 9.81828 8.79883 8.75742C8.79883 7.69655 9.22026 6.67913 9.9704 5.92899C10.7205 5.17884 11.738 4.75742 12.7988 4.75742ZM12.7988 6.75742C12.2684 6.75742 11.7597 6.96813 11.3846 7.3432C11.0095 7.71827 10.7988 8.22698 10.7988 8.75742C10.7988 9.28785 11.0095 9.79656 11.3846 10.1716C11.7597 10.5467 12.2684 10.7574 12.7988 10.7574C13.3293 10.7574 13.838 10.5467 14.213 10.1716C14.5881 9.79656 14.7988 9.28785 14.7988 8.75742C14.7988 8.22698 14.5881 7.71827 14.213 7.3432C13.838 6.96813 13.3293 6.75742 12.7988 6.75742ZM12.7988 13.7574C15.4688 13.7574 20.7988 15.0874 20.7988 17.7574V20.7574H4.79883V17.7574C4.79883 15.0874 10.1288 13.7574 12.7988 13.7574ZM12.7988 15.6574C9.82883 15.6574 6.69883 17.1174 6.69883 17.7574V18.8574H18.8988V17.7574C18.8988 17.1174 15.7688 15.6574 12.7988 15.6574Z" fill="currentColor"/>
</svg>
